<?xml version="1.0" standalone="no"?>
<!DOCTYPE svg PUBLIC "-//W3C//DTD SVG 20010904//EN"
 "http://www.w3.org/TR/2001/REC-SVG-20010904/DTD/svg10.dtd">
<svg version="1.0" xmlns="http://www.w3.org/2000/svg"
 width="102.000000pt" height="83.000000pt" viewBox="0 0 102.000000 83.000000"
 preserveAspectRatio="xMidYMid meet">

<g transform="translate(0.000000,83.000000) scale(0.100000,-0.100000)"
fill="#cb0101" stroke="none">
<path d="M271 716 c-49 -27 -64 -92 -36 -160 16 -39 55 -52 55 -18 0 10 9 25
20 35 28 23 27 57 -1 50 -37 -10 -18 30 24 50 44 22 47 34 11 47 -33 13 -44
12 -73 -4z"/>
<path d="M676 711 l-29 -19 34 -15 c39 -16 64 -42 54 -56 -4 -7 -15 -5 -31 5
-22 15 -24 15 -24 0 0 -8 14 -31 31 -50 17 -20 28 -40 24 -46 -3 -5 3 -10 14
-10 12 0 21 6 21 14 0 8 5 16 12 18 6 2 13 30 16 61 4 51 2 60 -20 81 -34 35
-67 40 -102 17z"/>
<path d="M140 533 c-24 -79 16 -132 76 -100 l29 15 -38 7 c-34 7 -37 10 -38
44 0 20 -4 45 -8 56 -7 17 -10 14 -21 -22z"/>
<path d="M485 559 c-16 -5 -42 -6 -57 -3 -22 4 -27 2 -22 -10 4 -9 -4 -20 -23
-29 -15 -9 -43 -31 -62 -50 -28 -30 -32 -40 -26 -64 11 -46 95 -119 159 -139
54 -17 58 -17 113 0 67 21 163 110 163 150 0 34 -10 56 -25 56 -7 0 -15 7 -19
15 -3 8 -12 15 -21 15 -8 0 -15 4 -15 9 0 5 -9 13 -20 16 -12 4 -20 15 -20 28
0 17 -2 19 -9 8 -8 -13 -24 -12 -73 3 -7 2 -26 0 -43 -5z"/>
<path d="M862 533 c-7 -22 -12 -47 -12 -55 0 -8 -15 -20 -32 -25 l-33 -10 27
-13 c23 -11 31 -10 53 4 20 13 25 24 24 59 0 23 -4 50 -8 61 -6 15 -9 11 -19
-21z"/>
<path d="M127 361 c23 -23 49 -41 57 -41 20 0 53 31 61 57 5 20 4 21 -19 10
-14 -7 -26 -15 -26 -19 0 -3 -12 0 -27 7 -16 8 -41 17 -58 20 l-30 7 42 -41z"/>
<path d="M780 380 c0 -24 33 -60 55 -60 9 0 35 18 58 40 l42 39 -40 -10 c-22
-6 -48 -15 -57 -20 -12 -6 -18 -6 -18 0 0 6 -9 15 -20 21 -17 9 -20 8 -20 -10z"/>
<path d="M250 290 c-11 -11 -20 -30 -19 -42 1 -28 17 -78 18 -60 1 7 8 21 17
29 9 9 13 25 10 37 -4 17 0 21 20 22 32 2 42 13 24 24 -24 15 -48 12 -70 -10z"/>
<path d="M704 295 c-19 -14 -19 -14 1 -16 11 -1 26 -2 33 -2 6 1 12 -9 12 -22
0 -12 3 -37 6 -54 l7 -32 13 27 c19 36 18 70 -3 94 -21 24 -42 25 -69 5z"/>
</g>
</svg>
